# xmcd CD database file
#
# Track frame offsets:
#	150
#	12773
#	31633
#	47318
#	63580
#	81325
#	95009
#	111634
#	126075
#	141385
#	160329
#	180221
#	198763
#	213460
#	229916
#	242267
#	254865
#	271147
#	287200
#	301471
#	315681
#	331568
#	344686
#
# Disc length: 4731 seconds
#
# Revision: 1
# Processed by: cddbd v1.5.2PL0 Copyright (c) Steve Scherf et al.
# Submitted via: CDex 1.78
#
DISCID=4b127917
DTITLE=Various Artist - Diamondback #15
DYEAR=2015
DGENRE=Country
TTITLE0=B Jeff Stone - Only Daddy That'll Walk The Line
TTITLE1=Allen Karl - Nobody Wins
TTITLE2=Ann Pascoe and Dennis Marsh - Sweet Memories
TTITLE3=Donna Cunningham - Kickin' Up Dust
TTITLE4=Terry Gorka - Part Of The Conversation
TTITLE5=Dwight Hall - My Strength Must Come From You
TTITLE6=Wendy Ford - Christmas In July
TTITLE7=Mitch Snow - 1957-1993
TTITLE8=The Long and Short Of It - Carry Me
TTITLE9=John Dickie IV - Always Up To Me
TTITLE10=Gail Russell - Maybe
TTITLE11=Ray Bartley and Jan Linder-Koda - In The Promised Land
TTITLE12=Phillip Clarkson - Pedro The Amigo
TTITLE13=Glory Gates Quartet - By His Grace
TTITLE14=Glenn Erickson - Don't Be Blinded
TTITLE15=Steve Warren - Sweet Baby
TTITLE16=Peter Trenholm - Our Tribute To Hank Williams
TTITLE17=Ryan Somerville - Marry An Ugly Woman
TTITLE18=Rex Allen Jr - Arizona
TTITLE19=Juil Maners and William Ray - Need Somebody
TTITLE20=Dwight Hall - My Cherokee Rose
TTITLE21=Betty Overstreet - Ain't Gonna Walk That Straight Line
TTITLE22=Glenn Erickson - Patches Of Blue
EXTD=YEAR: 2015
EXTT0=
EXTT1=
EXTT2=
EXTT3=
EXTT4=
EXTT5=
EXTT6=
EXTT7=
EXTT8=
EXTT9=
EXTT10=
EXTT11=
EXTT12=
EXTT13=
EXTT14=
EXTT15=
EXTT16=
EXTT17=
EXTT18=
EXTT19=
EXTT20=
EXTT21=
EXTT22=
PLAYORDER=
